<?xml version="1.0" encoding="utf-8"?>
<!-- Generator: Adobe Illustrator 18.0.0, SVG Export Plug-In . SVG Version: 6.00 Build 0)  -->
<!DOCTYPE svg PUBLIC "-//W3C//DTD SVG 1.1//EN" "http://www.w3.org/Graphics/SVG/1.1/DTD/svg11.dtd">
<svg version="1.1" id="Layer_1" xmlns="http://www.w3.org/2000/svg" xmlns:xlink="http://www.w3.org/1999/xlink" x="0px" y="0px"
	 viewBox="9.7 199.4 592.5 592.7" enable-background="new 9.7 199.4 592.5 592.7" xml:space="preserve">
<path fill="#333333" d="M306,199.4C142.4,199.4,9.7,332,9.7,495.7S142.4,792,306,792s296.3-132.7,296.3-296.3S469.6,199.4,306,199.4
	z M306,768.4c-150.7,0-272.7-122.1-272.7-272.7s122-272.7,272.7-272.7s272.7,122,272.7,272.7S456.7,768.4,306,768.4z"/>
<path id="Path" fill="#333333" d="M176,488.8c0-6.5,5.1-11.9,11.4-11.9h237.1c6.4,0,11.4,5.3,11.4,11.9v13.7
	c0,6.5-5.1,11.9-11.4,11.9H187.4c-6.4,0-11.4-5.3-11.4-11.9V488.8L176,488.8z"/>
<path id="Path_1_" fill="#333333" d="M176,563.5c0-6.5,5.1-11.9,11.4-11.9h237.1c6.4,0,11.4,5.3,11.4,11.9v13.7
	c0,6.5-5.1,11.9-11.4,11.9H187.4c-6.4,0-11.4-5.3-11.4-11.9V563.5L176,563.5z"/>
<path id="Path_2_" fill="#333333" d="M176,635.8c0-6.5,5.1-11.9,11.4-11.9h237.1c6.4,0,11.4,5.3,11.4,11.9v13.7
	c0,6.5-5.1,11.9-11.4,11.9H187.4c-6.4,0-11.4-5.3-11.4-11.9V635.8L176,635.8z"/>
<path id="Path_3_" fill="#333333" d="M399.3,364c-3.3-20.7-21.2-36.4-42.7-36.4h-100c-22.2,0-40.1,16.5-42.8,37.8
	c-0.2,0.9-0.4,1.8-0.4,2.8v58.6c0,6,4.9,11.3,11,11.3h15.3c5.8,0,11-5,11-11.3v-37.6V376c0-6.2,4.8-11.3,11.1-11.3h89.7
	c6.1,0,11.1,4.8,11.1,11.3v18.8v31.7c0,6,4.9,11.3,11,11.3H389c5.8,0,11-5,11-11.3v-58.6C400.1,366.8,399.9,365.2,399.3,364
	L399.3,364z"/>
</svg>
