<?xml version="1.0" encoding="utf-8"?>
<!-- Generator: Adobe Illustrator 20.1.0, SVG Export Plug-In . SVG Version: 6.00 Build 0)  -->
<svg version="1.1" id="Layer_1" xmlns="http://www.w3.org/2000/svg" xmlns:xlink="http://www.w3.org/1999/xlink" x="0px" y="0px"
	 viewBox="0 0 592.6 592.7" style="enable-background:new 0 0 592.6 592.7;" xml:space="preserve">
<style type="text/css">
	.st0{fill:#333333;}
</style>
<g>
	<path class="st0" d="M296.3,0.1C132.7,0.1,0,132.8,0,296.4s132.7,296.3,296.3,296.3s296.3-132.7,296.3-296.3S459.9,0.1,296.3,0.1z
		 M296.3,569.1c-150.7,0-272.7-122.1-272.7-272.7s122-272.7,272.7-272.7S569,145.7,569,296.4S447,569.1,296.3,569.1z"/>
	<path id="Path" class="st0" d="M166.3,289.5c0-6.5,5.1-11.9,11.4-11.9h237.1c6.4,0,11.4,5.3,11.4,11.9v13.7
		c0,6.5-5.1,11.9-11.4,11.9H177.7c-6.4,0-11.4-5.3-11.4-11.9V289.5L166.3,289.5z"/>
	<path id="Path_1_" class="st0" d="M166.3,364.1c0-6.5,5.1-11.9,11.4-11.9h237.1c6.4,0,11.4,5.3,11.4,11.9v13.7
		c0,6.5-5.1,11.9-11.4,11.9H177.7c-6.4,0-11.4-5.3-11.4-11.9V364.1L166.3,364.1z"/>
	<path id="Path_2_" class="st0" d="M166.3,436.4c0-6.5,5.1-11.9,11.4-11.9h237.1c6.4,0,11.4,5.3,11.4,11.9v13.7
		c0,6.5-5.1,11.9-11.4,11.9H177.7c-6.4,0-11.4-5.3-11.4-11.9V436.4L166.3,436.4z"/>
	<path id="Path_3_" class="st0" d="M389.6,164.7c-3.3-20.7-21.2-36.4-42.7-36.4h-100c-22.2,0-40.1,16.5-42.8,37.8
		c-0.2,0.9-0.4,1.8-0.4,2.8v58.6c0,6,4.9,11.3,11,11.3H230c5.8,0,11-5,11-11.3v-37.6v-13.1c0-6.2,4.8-11.3,11.1-11.3h89.7
		c6.1,0,11.1,4.8,11.1,11.3v18.8v31.7c0,6,4.9,11.3,11,11.3h15.4c5.8,0,11-5,11-11.3v-58.6C390.4,167.5,390.2,166,389.6,164.7
		L389.6,164.7z"/>
</g>
</svg>
