<?xml version="1.0" encoding="utf-8"?>
<!-- Generator: Adobe Illustrator 18.0.0, SVG Export Plug-In . SVG Version: 6.00 Build 0)  -->
<!DOCTYPE svg PUBLIC "-//W3C//DTD SVG 1.1//EN" "http://www.w3.org/Graphics/SVG/1.1/DTD/svg11.dtd">
<svg version="1.1" id="Layer_1" xmlns="http://www.w3.org/2000/svg" xmlns:xlink="http://www.w3.org/1999/xlink" x="0px" y="0px"
	 viewBox="0 99.7 612 592.7" enable-background="new 0 99.7 612 592.7" xml:space="preserve">
<path fill="#333333" d="M306,99.7C142.4,99.7,9.7,232.4,9.7,396S142.4,692.3,306,692.3S602.3,559.6,602.3,396S469.6,99.7,306,99.7z
	 M306,668.7C155.3,668.7,33.3,546.6,33.3,396s122-272.7,272.7-272.7s272.7,122,272.7,272.7S456.7,668.7,306,668.7z"/>
<path id="Path" fill="#333333" d="M176,389.1c0-6.5,5.1-11.9,11.4-11.9h237.1c6.4,0,11.4,5.3,11.4,11.9v13.7
	c0,6.5-5.1,11.9-11.4,11.9H187.4c-6.4,0-11.4-5.3-11.4-11.9V389.1L176,389.1z"/>
<path id="Path_1_" fill="#333333" d="M176,463.8c0-6.5,5.1-11.9,11.4-11.9h237.1c6.4,0,11.4,5.3,11.4,11.9v13.7
	c0,6.5-5.1,11.9-11.4,11.9H187.4c-6.4,0-11.4-5.3-11.4-11.9V463.8L176,463.8z"/>
<path id="Path_2_" fill="#333333" d="M176,536.1c0-6.5,5.1-11.9,11.4-11.9h237.1c6.4,0,11.4,5.3,11.4,11.9v13.7
	c0,6.5-5.1,11.9-11.4,11.9H187.4c-6.4,0-11.4-5.3-11.4-11.9V536.1L176,536.1z"/>
<path id="Path_3_" fill="#333333" d="M399.3,264.3c-3.3-20.7-21.2-36.4-42.7-36.4h-100c-22.2,0-40.1,16.5-42.8,37.8
	c-0.2,0.9-0.4,1.8-0.4,2.8v58.6c0,6,4.9,11.3,11,11.3h15.3c5.8,0,11-5,11-11.3v-37.6v-13.1c0-6.2,4.8-11.3,11.1-11.3h89.7
	c6.1,0,11.1,4.8,11.1,11.3v18.8v31.7c0,6,4.9,11.3,11,11.3H389c5.8,0,11-5,11-11.3v-58.6C400.1,267.1,399.9,265.6,399.3,264.3
	L399.3,264.3z"/>
</svg>
