<?xml version="1.0" encoding="utf-8"?>
<!-- Generator: Adobe Illustrator 20.1.0, SVG Export Plug-In . SVG Version: 6.00 Build 0)  -->
<svg version="1.1" id="Layer_1" xmlns="http://www.w3.org/2000/svg" xmlns:xlink="http://www.w3.org/1999/xlink" x="0px" y="0px"
	 viewBox="0 0 592.6 592.6" style="enable-background:new 0 0 592.6 592.6;" xml:space="preserve">
<style type="text/css">
	.st0{fill:#333333;}
</style>
<path class="st0" d="M296.3,0C132.7,0,0,132.6,0,296.3s132.7,296.3,296.3,296.3s296.3-132.7,296.3-296.3S459.9,0,296.3,0z
	 M296.3,569C145.6,569,23.6,446.9,23.6,296.3s122-272.7,272.7-272.7S569,145.6,569,296.3S447,569,296.3,569z"/>
<g>
	<path id="Path" class="st0" d="M166.3,288.6c0-6.5,5.1-11.9,11.4-11.9h237.1c6.4,0,11.4,5.3,11.4,11.9v13.7
		c0,6.5-5.1,11.9-11.4,11.9H177.7c-6.4,0-11.4-5.3-11.4-11.9V288.6L166.3,288.6z"/>
	<path id="Path_1_" class="st0" d="M166.3,363c0-6.5,5.1-11.9,11.4-11.9h237.1c6.4,0,11.4,5.3,11.4,11.9v13.7
		c0,6.5-5.1,11.9-11.4,11.9H177.7c-6.4,0-11.4-5.3-11.4-11.9V363L166.3,363z"/>
	<path id="Path_2_" class="st0" d="M166.3,437.3c0-6.5,5.1-11.9,11.4-11.9h237.1c6.4,0,11.4,5.3,11.4,11.9V451
		c0,6.5-5.1,11.9-11.4,11.9H177.7c-6.4,0-11.4-5.3-11.4-11.9V437.3L166.3,437.3z"/>
	<path id="Path_4_" class="st0" d="M353.3,181.9c0,6.3,5.2,11.3,11,11.3h15.3c6.1,0,10.7-5.3,10.7-11.3v-11.6c0-1,0-1.7-0.1-2.8
		c-2.7-21.3-20.6-37.8-42.8-37.8h-100c-21.5,0-39.8,15.7-43.1,36.4l0,0c-0.3,3.4-0.3,2.6-0.3,3.9v58.6c0,6.3,5.2,11.3,11,11.3h15.4
		c6.1,0,11-5.3,11-11.3v-31.7v-18.8c0-6.5,5-11.3,11.1-11.3h89.7C353.5,167,353.3,175.7,353.3,181.9"/>
</g>
</svg>
