<?xml version="1.0" standalone="no"?><!DOCTYPE svg PUBLIC "-//W3C//DTD SVG 1.1//EN" "http://www.w3.org/Graphics/SVG/1.1/DTD/svg11.dtd"><svg viewBox="0 0 24 24" version="1.1" xmlns="http://www.w3.org/2000/svg" xmlns:xlink="http://www.w3.org/1999/xlink"><defs xmlns="http://www.w3.org/1999/xhtml"></defs><path fill="#333333" d="M 12 4 C 5.142 4 1.8857031 9.8786406 1.0957031 11.556641 C 0.96370312 11.836641 0.96370313 12.161406 1.0957031 12.441406 C 1.8857031 14.120406 5.142 20 12 20 C 18.834 20 22.092484 14.162937 22.896484 12.460938 C 23.034484 12.167938 23.034484 11.832062 22.896484 11.539062 C 22.092484 9.8370625 18.834 4 12 4 z M 12 7 C 14.761 7 17 9.239 17 12 C 17 14.761 14.761 17 12 17 C 9.239 17 7 14.761 7 12 C 7 9.239 9.239 7 12 7 z M 12 9 A 3 3 0 0 0 9 12 A 3 3 0 0 0 12 15 A 3 3 0 0 0 15 12 A 3 3 0 0 0 12 9 z"/></svg>