<?xml version="1.0" encoding="utf-8"?>
<!-- Generator: Adobe Illustrator 18.0.0, SVG Export Plug-In . SVG Version: 6.00 Build 0)  -->
<!DOCTYPE svg PUBLIC "-//W3C//DTD SVG 1.1//EN" "http://www.w3.org/Graphics/SVG/1.1/DTD/svg11.dtd">
<svg version="1.1" id="Layer_1" xmlns="http://www.w3.org/2000/svg" xmlns:xlink="http://www.w3.org/1999/xlink" x="0px" y="0px"
	 viewBox="0 0 24 32" enable-background="new 0 0 24 32" xml:space="preserve">
<path fill="#333333" d="M22.4,8c-1-1.2-2.5-1.9-4.4-2c-1.9,0-3.4,0.8-4.4,2S12,9.8,12,10c0-0.2-0.6-0.8-1.6-2S8.1,6,6,6
	C4.1,6.1,2.6,6.8,1.6,8C0.6,9.2,0,10.6,0,12c0,1,0.2,3,1.3,5.3S6,23.2,12,28c6-4.8,9.5-8.3,10.7-10.7S24,13,24,12
	C24,10.6,23.4,9.2,22.4,8L22.4,8z"/>
</svg>
