<?xml version="1.0" encoding="utf-8"?>
<!-- Generator: Adobe Illustrator 18.0.0, SVG Export Plug-In . SVG Version: 6.00 Build 0)  -->
<!DOCTYPE svg PUBLIC "-//W3C//DTD SVG 1.1//EN" "http://www.w3.org/Graphics/SVG/1.1/DTD/svg11.dtd">
<svg version="1.1" id="Layer_1" xmlns="http://www.w3.org/2000/svg" xmlns:xlink="http://www.w3.org/1999/xlink" x="0px" y="0px"
	 viewBox="0 0 32 32" enable-background="new 0 0 32 32" xml:space="preserve">
<path fill="#333333" d="M0,8.5v14.9c0,0.9,0.6,1.7,1.5,1.9l13,3.5c0.3,0.1,0.7,0.1,1,0l13-3.5c0.9-0.2,1.5-1,1.5-1.9V8.5
	c0-0.9-0.6-1.7-1.5-1.9l-13-3.5c-0.3-0.1-0.7-0.1-1,0l-13,3.5C0.6,6.8,0,7.6,0,8.5z M14,26.7L2,23.5V10l12,3.2V26.7z M2,8l5-1.3
	l13,3.5l-5,1.3L2,8z M28,23.5l-12,3.2V13.2l4-1.1V17l4-1.1v-4.9l4-1.1V23.5L28,23.5z M24,9.1L11,5.6l4-1.1L28,8L24,9.1z"/>
</svg>
