<?xml version="1.0" encoding="utf-8"?>
<!-- Generator: Adobe Illustrator 18.0.0, SVG Export Plug-In . SVG Version: 6.00 Build 0)  -->
<!DOCTYPE svg PUBLIC "-//W3C//DTD SVG 1.1//EN" "http://www.w3.org/Graphics/SVG/1.1/DTD/svg11.dtd">
<svg version="1.1" id="Layer_1" xmlns="http://www.w3.org/2000/svg" xmlns:xlink="http://www.w3.org/1999/xlink" x="0px" y="0px"
	 viewBox="0 0 20 32" enable-background="new 0 0 20 32" xml:space="preserve">
<path fill="#333333" d="M16,2c-2.2,0-4,1.8-4,4c0,1.5,0.8,2.8,2,3.4V12l-4,4l-4-4V9.4c1.2-0.7,2-2,2-3.4c0-2.2-1.8-4-4-4S0,3.8,0,6
	c0,1.5,0.8,2.8,2,3.4V13l6,6v3.6c-1.2,0.7-2,2-2,3.4c0,2.2,1.8,4,4,4s4-1.8,4-4c0-1.5-0.8-2.8-2-3.4V19l6-6V9.4c1.2-0.7,2-2,2-3.4
	C20,3.8,18.2,2,16,2z M4,8.4C2.7,8.4,1.6,7.3,1.6,6S2.7,3.6,4,3.6S6.4,4.7,6.4,6S5.3,8.4,4,8.4z M10,28.4c-1.3,0-2.4-1.1-2.4-2.4
	s1.1-2.4,2.4-2.4s2.4,1.1,2.4,2.4S11.3,28.4,10,28.4z M16,8.4c-1.3,0-2.4-1.1-2.4-2.4s1.1-2.4,2.4-2.4s2.4,1.1,2.4,2.4
	S17.3,8.4,16,8.4z"/>
</svg>
