<?xml version="1.0" encoding="utf-8"?>
<!-- Generator: Adobe Illustrator 20.1.0, SVG Export Plug-In . SVG Version: 6.00 Build 0)  -->
<svg version="1.1" id="Layer_1" xmlns="http://www.w3.org/2000/svg" xmlns:xlink="http://www.w3.org/1999/xlink" x="0px" y="0px"
	 viewBox="0 0 50 50" style="enable-background:new 0 0 50 50;" xml:space="preserve">
<style type="text/css">
	.st0{fill:#333333;}
</style>
<path class="st0" d="M21.1,0L21,0.8l-1.1,6.6c-1.3,0.4-2.6,0.9-3.8,1.5l-5.4-3.8l-0.7-0.5L9.5,5.2L5.2,9.4L4.6,10l0.5,0.7l3.8,5.4
	c-0.7,1.2-1.1,2.4-1.5,3.8L0.8,21L0,21.1V22v6v0.8l0.8,0.2l6.5,1.2c0.4,1.3,0.9,2.6,1.6,3.7l-3.8,5.4l-0.5,0.7l0.6,0.6l4.2,4.2
	l0.6,0.6l0.7-0.5l5.4-3.8c1.2,0.7,2.5,1.1,3.8,1.5l1.1,6.6l0.1,0.8h0.8h6h0.8l0.2-0.8l1.2-6.6c1.3-0.4,2.5-0.9,3.7-1.6l5.5,3.8
	l0.7,0.5l0.6-0.6l4.2-4.2l0.6-0.6l-0.5-0.7L41,33.8c0.6-1.2,1.2-2.4,1.5-3.7l6.6-1.2l0.8-0.2V28v-6v-0.9L49.2,21l-6.6-1.1
	c-0.4-1.3-0.9-2.5-1.6-3.7l3.8-5.5l0.5-0.7l-0.6-0.6l-4.2-4.2l-0.6-0.6l-0.7,0.5l-5.4,3.9c-1.2-0.7-2.4-1.1-3.8-1.5l-1.2-6.6L28.8,0
	h-0.8h-6H21.1z M22.8,2h4.3l1.1,6.3l0.1,0.6L29,9.1c1.6,0.4,3.1,1,4.5,1.9l0.6,0.3l0.5-0.4l5.2-3.7l3.1,3l-3.7,5.2L38.7,16l0.3,0.6
	c0.8,1.4,1.4,2.9,1.8,4.5l0.2,0.6l0.6,0.1l6.3,1v4.3l-6.3,1.1L41,28.3L40.9,29c-0.4,1.6-1,3.1-1.8,4.5L38.7,34l0.4,0.5l3.7,5.2l-3,3
	l-5.2-3.7L34,38.7l-0.6,0.3c-1.4,0.8-2.9,1.5-4.5,1.9l-0.6,0.2l-0.1,0.6L27.1,48h-4.3l-1-6.2l-0.1-0.7L21,40.9
	c-1.6-0.4-3.1-1-4.5-1.8L16,38.8l-0.6,0.4l-5.2,3.6l-3-3.1l3.7-5.1l0.4-0.5l-0.3-0.6C10.1,32.1,9.4,30.6,9,29l-0.2-0.6l-0.6-0.1
	L2,27.1v-4.3l6.2-1l0.7-0.1L9,21c0.4-1.6,1-3.1,1.9-4.5l0.3-0.6l-0.4-0.5l-3.6-5.2l3-3l5.2,3.7l0.5,0.4l0.6-0.3
	c1.4-0.8,2.9-1.4,4.5-1.8l0.7-0.2l0.1-0.7L22.8,2z M25,16c-5,0-9,4-9,9s4,9,9,9s9-4,9-9S30,16,25,16z M25,18c3.9,0,7,3.1,7,7
	s-3.1,7-7,7s-7-3.1-7-7S21.1,18,25,18z"/>
</svg>
