<?xml version="1.0" encoding="utf-8"?>
<!-- Generator: Adobe Illustrator 18.0.0, SVG Export Plug-In . SVG Version: 6.00 Build 0)  -->
<!DOCTYPE svg PUBLIC "-//W3C//DTD SVG 1.1//EN" "http://www.w3.org/Graphics/SVG/1.1/DTD/svg11.dtd">
<svg version="1.1" id="Layer_1" xmlns="http://www.w3.org/2000/svg" xmlns:xlink="http://www.w3.org/1999/xlink" x="0px" y="0px"
	 viewBox="0 0 28 32" enable-background="new 0 0 28 32" xml:space="preserve">
<path fill="#333333" d="M28,17.5v-3.2l-3.9-1.3l-0.9-2.2L25,7.2l-2.2-2.2l-3.6,1.8l-2.2-0.9L15.5,2h-3.2l-1.2,3.9L8.9,6.8L5.2,5
	L2.9,7.3l1.8,3.6l-0.9,2.2L0,14.5v3.2l3.9,1.3l0.9,2.2L3,24.8l2.2,2.2l3.6-1.8l2.2,0.9l1.4,3.8h3.2l1.2-3.9l2.2-0.9l3.7,1.8l2.2-2.2
	l-1.8-3.6l0.9-2.2L28,17.5L28,17.5z M14,22c-3.3,0-6-2.7-6-6s2.7-6,6-6s6,2.7,6,6S17.3,22,14,22z"/>
</svg>
