<?xml version="1.0" encoding="utf-8"?>
<!-- Generator: Adobe Illustrator 18.0.0, SVG Export Plug-In . SVG Version: 6.00 Build 0)  -->
<!DOCTYPE svg PUBLIC "-//W3C//DTD SVG 1.1//EN" "http://www.w3.org/Graphics/SVG/1.1/DTD/svg11.dtd">
<svg version="1.1" id="Layer_1" xmlns:sketch="http://www.bohemiancoding.com/sketch/ns"
	 xmlns="http://www.w3.org/2000/svg" xmlns:xlink="http://www.w3.org/1999/xlink" x="0px" y="0px" viewBox="0 0 612 792"
	 enable-background="new 0 0 612 792" xml:space="preserve">
<g id="Page-1" sketch:type="MSPage">
	<g id="Crypter" sketch:type="MSArtboardGroup">
		<g id="logo" sketch:type="MSLayerGroup">
			
				<linearGradient id="Rectangle-8_1_" gradientUnits="userSpaceOnUse" x1="262.2441" y1="1053.2559" x2="262.2441" y2="1054.2559" gradientTransform="matrix(612 0 0 -612 -160187.4062 645294.5625)">
				<stop  offset="0" style="stop-color:#F46B45"/>
				<stop  offset="1" style="stop-color:#EEA849"/>
			</linearGradient>
			<path id="Rectangle-8" sketch:type="MSShapeGroup" fill="url(#Rectangle-8_1_)" d="M306,90L306,90c169,0,306,137,306,306l0,0
				c0,169-137,306-306,306l0,0C137,702,0,565,0,396l0,0C0,227,137,90,306,90z"/>
			<g id="Group-2">
			</g>
		</g>
	</g>
</g>
<title>Crypter</title>
<desc>Created with Sketch.</desc>
<g>
	<path id="Path" fill="#333333" d="M176.8,390.2c0-6.5,5.1-11.9,11.4-11.9h237.1c6.4,0,11.4,5.3,11.4,11.9V404
		c0,6.5-5.1,11.9-11.4,11.9H188.2c-6.4,0-11.4-5.3-11.4-11.9V390.2L176.8,390.2z"/>
	<path id="Path_1_" fill="#333333" d="M176.8,465c0-6.5,5.1-11.9,11.4-11.9h237.1c6.4,0,11.4,5.3,11.4,11.9v13.7
		c0,6.5-5.1,11.9-11.4,11.9H188.2c-6.4,0-11.4-5.3-11.4-11.9V465L176.8,465z"/>
	<path id="Path_2_" fill="#333333" d="M176.8,537.2c0-6.5,5.1-11.9,11.4-11.9h237.1c6.4,0,11.4,5.3,11.4,11.9V551
		c0,6.5-5.1,11.9-11.4,11.9H188.2c-6.4,0-11.4-5.3-11.4-11.9V537.2L176.8,537.2z"/>
	<path id="Path_3_" fill="#333333" d="M400.1,265.5c-3.3-20.7-21.2-36.4-42.7-36.4h-100c-22.2,0-40.1,16.5-42.8,37.8
		c-0.2,0.9-0.4,1.8-0.4,2.8v58.6c0,6,4.9,11.3,11,11.3h15.3c5.8,0,11-5,11-11.3v-37.6v-13.2c0-6.2,4.8-11.3,11.1-11.3h89.7
		c6.1,0,11.1,4.8,11.1,11.3v18.8V328c0,6,4.9,11.3,11,11.3h15.4c5.8,0,11-5,11-11.3v-58.6C400.9,268.2,400.7,266.7,400.1,265.5
		L400.1,265.5z"/>
</g>
</svg>
