<?xml version="1.0" encoding="utf-8"?>
<!-- Generator: Adobe Illustrator 18.0.0, SVG Export Plug-In . SVG Version: 6.00 Build 0)  -->
<!DOCTYPE svg PUBLIC "-//W3C//DTD SVG 1.1//EN" "http://www.w3.org/Graphics/SVG/1.1/DTD/svg11.dtd">
<svg version="1.1" id="Layer_1" xmlns="http://www.w3.org/2000/svg" xmlns:xlink="http://www.w3.org/1999/xlink" x="0px" y="0px"
	 viewBox="0 0 612 792" enable-background="new 0 0 612 792" xml:space="preserve">
<path fill="#333333" d="M304.8,144.4C141.2,144.4,8.5,277.1,8.5,440.7S141.2,737,304.8,737s296.3-132.7,296.3-296.3
	S468.4,144.4,304.8,144.4z"/>
<polygon fill="#FFFFFF" points="204.2,428.3 233.1,418.8 239,437.3 210.1,446.8 228.2,471.6 212.4,482.9 194.3,458.5 176.7,483.4 
	160.9,472.1 179,447.3 150.1,437.8 156,419.3 184.8,428.8 184.8,398.5 204.2,398.5 "/>
<polygon fill="#FFFFFF" points="311.5,428.3 340.4,418.8 346.3,437.3 317.4,446.8 335.4,471.6 319.6,482.9 301.6,458.5 284,483.4 
	268.2,472.1 286.3,447.3 257.4,437.8 263.2,419.3 292.1,428.8 292.1,398.5 311.5,398.5 311.5,428.3 "/>
<polygon fill="#FFFFFF" points="418.8,428.3 447.7,418.8 453.5,437.3 424.7,446.8 442.7,471.6 426.9,482.9 409.3,458.5 391.7,483.4 
	375.5,471.6 393.5,446.8 364.7,437.3 370.5,418.8 399.4,428.3 399.4,398.1 418.8,398.1 "/>
</svg>
